name C:\Users\u0101727\Documents\MyRepositories\upper-imu-dc\Results\main_tracking\Case_46\kinematics_filtered.mot
datacolumns 10
datarows 28
range 3.75000000 4.02000000
endheader 
time	clav_prot	clav_elev	scapula_abduction	scapula_elevation	scapula_upward_rot	scapula_winging	plane_elv	shoulder_elv	axial_rot	
          3.75000000	        -46.59465695	          9.21937313	         -2.90252682	         -1.70337955	         84.11455031	        -13.32096017	         37.23284751	         88.09754347	         -9.46353724	
          3.76000000	        -46.60903925	          9.21997270	         -2.92580806	         -1.70402347	         84.11569607	        -13.33100498	         37.21799691	         88.05594843	         -9.35121164	
          3.77000000	        -46.61804371	          9.22326138	         -2.94634996	         -1.70331693	         84.10944532	        -13.33928020	         37.20646575	         88.01417711	         -9.23648908	
          3.78000000	        -46.62129640	          9.22937659	         -2.96374738	         -1.70116526	         84.09555747	        -13.34559767	         37.19816025	         87.97229746	         -9.11980596	
          3.79000000	        -46.61841540	          9.23842025	         -2.97753747	         -1.69749022	         84.07384014	        -13.34974634	         37.19298764	         87.93035130	         -9.00170517	
          3.80000000	        -46.60903002	          9.25044968	         -2.98722778	         -1.69223744	         84.04415145	        -13.35150319	         37.19087901	         87.88834379	         -8.88281747	
          3.81000000	        -46.59280071	          9.26547053	         -2.99232777	         -1.68538276	         84.00639957	        -13.35064579	         37.19181109	         87.84623444	         -8.76383900	
          3.82000000	        -46.56943773	          9.28343207	         -2.99238073	         -1.67693729	         83.96053999	        -13.34696495	         37.19582475	         87.80393056	         -8.64550604	
          3.83000000	        -46.53871701	          9.30422497	         -2.98699280	         -1.66695072	         83.90657097	        -13.34027644	         37.20303849	         87.76128396	         -8.52856796	
          3.84000000	        -46.50049149	          9.32768126	         -2.97585597	         -1.65551301	         83.84452790	        -13.33043021	         37.21365577	         87.71809115	         -8.41375991	
          3.85000000	        -46.45469697	          9.35357626	         -2.95876241	         -1.64275428	         83.77447756	        -13.31731632	         37.22796538	         87.67409733	         -8.30177650	
          3.86000000	        -46.40135192	          9.38163217	         -2.93560861	         -1.62884303	         83.69651321	        -13.30086677	         37.24633491	         87.62900379	         -8.19324848	
          3.87000000	        -46.34055155	          9.41152318	         -2.90638931	         -1.61398275	         83.61075101	        -13.28105348	         37.26919803	         87.58247816	         -8.08872384	
          3.88000000	        -46.27245700	          9.44288202	         -2.87118217	         -1.59840688	         83.51732853	        -13.25788282	         37.29703677	         87.53416693	         -7.98865491	
          3.89000000	        -46.19728135	          9.47530811	         -2.83012595	         -1.58237227	         83.41640514	        -13.23138780	         37.33036047	         87.48370912	         -7.89339223	
          3.90000000	        -46.11527394	          9.50837708	         -2.78339513	         -1.56615132	         83.30816428	        -13.20161937	         37.36968324	         87.43075025	         -7.80318587	
          3.91000000	        -46.02670523	          9.54165187	         -2.73117459	         -1.55002303	         83.19281690	        -13.16863793	         37.41550173	         87.37495568	         -7.71819363	
          3.92000000	        -45.93185352	          9.57469478	         -2.67363743	         -1.53426351	         83.07060539	        -13.13250653	         37.46827463	         87.31602247	         -7.63849548	
          3.93000000	        -45.83099478	          9.60708015	         -2.61092848	         -1.51913638	         82.94180713	        -13.09328632	         37.52840518	         87.25368904	         -7.56411253	
          3.94000000	        -45.72439636	          9.63840694	         -2.54315494	         -1.50488369	         82.80673692	        -13.05103481	         37.59622746	         87.18774208	         -7.49502859	
          3.95000000	        -45.61231460	          9.66831049	         -2.47038485	         -1.49171800	         82.66574762	        -13.00580685	         37.67199678	         87.11802048	         -7.43121215	
          3.96000000	        -45.49499602	          9.69647283	         -2.39265286	         -1.47981590	         82.51922846	        -12.95765805	         37.75588438	         87.04441593	         -7.37263652	
          3.97000000	        -45.37268137	          9.72263093	         -2.30997214	         -1.46931353	         82.36760106	        -12.90664995	         37.84797613	         86.96687055	         -7.31929620	
          3.98000000	        -45.24561151	          9.74658253	         -2.22235046	         -1.46030404	         82.21131318	        -12.85285599	         37.94827484	         86.88537156	         -7.27121803	
          3.99000000	        -45.11403392	          9.76818914	         -2.12980814	         -1.45283725	         82.05083058	        -12.79636753	         38.05670546	         86.79994390	         -7.22846629	
          4.00000000	        -44.97820879	          9.78737612	         -2.03239556	         -1.44692128	         81.88662769	        -12.73729889	         38.17312240	         86.71064120	         -7.19114145	
          4.01000000	        -44.83841381	          9.80412991	         -1.93020812	         -1.44252608	         81.71917779	        -12.67579075	         38.29731821	         86.61753616	         -7.15937300	
          4.02000000	        -44.69494698	          9.81849263	         -1.82339726	         -1.43958843	         81.54894339	        -12.61201155	         38.42903297	         86.52071113	         -7.13330712	
